<?xml version="1.0" encoding="UTF-8"?>
<svg width="15px" height="17px" viewBox="0 0 15 17" version="1.1" xmlns="http://www.w3.org/2000/svg" xmlns:xlink="http://www.w3.org/1999/xlink">
    <!-- Generator: Sketch 50 (54983) - http://www.bohemiancoding.com/sketch -->
    <title>Group 2</title>
    <desc>Created with Sketch.</desc>
    <defs></defs>
    <g id="Page-1" stroke="none" stroke-width="1" fill="none" fill-rule="evenodd">
        <g id="Notebook-Copy-5" transform="translate(-275.000000, -63.000000)" fill="#38507F" fill-rule="nonzero">
            <g id="Group-7" transform="translate(0.000000, 40.000000)">
                <g id="Group-13-Copy" transform="translate(48.000000, 0.000000)">
                    <g id="Group-9" transform="translate(19.000000, 22.000000)">
                        <g id="Group-2" transform="translate(208.000000, 1.000000)">
                            <polygon id="Shape" points="12.1125 8.60625 12.1125 12.00625 14.45 12.00625"></polygon>
                            <polygon id="Shape" points="2.7625 8.5 2.7625 12.00625 0.425 12.00625"></polygon>
                            <path d="M7.4375,0.31875 C12.00625,6.26875 10.8375,12.00625 10.8375,12.00625 L4.0375,12.00625 C4.0375,12.00625 2.86875,6.26875 7.4375,0.31875 Z M7.4375,9.1375 C8.14166306,9.1375 8.7125,8.56666306 8.7125,7.8625 C8.7125,7.15833694 8.14166306,6.5875 7.4375,6.5875 C6.73333694,6.5875 6.1625,7.15833694 6.1625,7.8625 C6.1625,8.56666306 6.73333694,9.1375 7.4375,9.1375 Z" id="Combined-Shape"></path>
                            <path d="M7.4375,16.68125 C7.4375,16.68125 4.56875,13.175 7.4375,13.175 C10.30625,13.175 7.4375,16.68125 7.4375,16.68125 Z" id="Shape"></path>
                            <polygon id="Shape" points="14.45 14.34375 14.45 12.00625 12.1125 12.00625"></polygon>
                            <polygon id="Shape" points="0.425 14.34375 2.7625 12.00625 0.425 12.00625"></polygon>
                        </g>
                    </g>
                </g>
            </g>
        </g>
    </g>
</svg>