<?xml version="1.0" encoding="UTF-8"?>
<svg width="14px" height="14px" viewBox="0 0 14 14" version="1.1" xmlns="http://www.w3.org/2000/svg" xmlns:xlink="http://www.w3.org/1999/xlink">
    <!-- Generator: Sketch 50 (54983) - http://www.bohemiancoding.com/sketch -->
    <title>Combined Shape</title>
    <desc>Created with Sketch.</desc>
    <defs></defs>
    <g id="Page-1" stroke="none" stroke-width="1" fill="none" fill-rule="evenodd">
        <g id="Notebook-Copy-5" transform="translate(-653.000000, -112.000000)" fill="#38507F" fill-rule="nonzero">
            <g id="Group-14" transform="translate(394.000000, 109.000000)">
                <g id="Group-20">
                    <path d="M265.934529,6.57788171 C265.934529,6.4129791 265.934529,5.67091737 265.934529,5.67091737 C264.780211,5.67091737 263.048733,5.67091737 262.471574,5.67091737 C262.471574,5.25866085 262.471574,4.59905043 262.636477,4.35169652 C262.966282,3.77453739 263.296087,3.44473218 264.038149,3.19737827 C265.439821,2.95002436 266.099431,2.95002436 267.25375,3.11492697 C268.078263,3.19737827 268.820324,3.8569887 268.820324,4.68150173 C268.820324,5.58846607 268.820324,7.15504083 268.820324,8.14445647 C268.820324,8.55671298 268.078263,9.46367732 267.171298,9.46367732 C266.264334,9.46367732 265.110016,9.46367732 264.038149,9.46367732 C262.801379,9.46367732 262.059318,10.6179956 262.059318,11.7723138 C262.059318,12.102119 262.059318,13.5862425 262.059318,13.5862425 C261.647061,13.5862425 261.069902,13.5862425 260.657645,13.5862425 C259.66823,13.3388886 259.255973,12.4319242 259.255973,11.6898625 C259.255973,10.6179956 259.255973,9.46367732 259.255973,8.30935907 C259.173522,7.48484604 259.750681,6.66033301 260.740097,6.66033301 C261.976866,6.57788171 265.934529,6.57788171 265.934529,6.57788171 Z M265.769626,13.3388886 C265.769626,13.5037912 265.769626,14.2458529 265.769626,14.2458529 C266.923944,14.2458529 268.655422,14.2458529 269.232581,14.2458529 C269.232581,14.6581094 269.232581,15.3177199 269.067678,15.5650738 C268.737873,16.1422329 268.408068,16.4720381 267.666006,16.719392 C266.264334,16.9667459 265.604724,16.9667459 264.450405,16.8018433 C263.625892,16.719392 262.883831,16.0597816 262.883831,15.2352685 C262.883831,14.3283042 262.883831,12.7617295 262.883831,11.7723138 C262.883831,11.3600573 263.625892,10.453093 264.532857,10.453093 C265.439821,10.453093 266.594139,10.453093 267.666006,10.453093 C268.902776,10.453093 269.644837,9.29877471 269.644837,8.14445647 C269.644837,7.81465125 269.644837,6.3305278 269.644837,6.3305278 C270.057094,6.3305278 270.634253,6.3305278 271.04651,6.3305278 C272.035925,6.57788171 272.448182,7.48484604 272.448182,8.22690777 C272.448182,9.29877471 272.448182,10.453093 272.448182,11.6074112 C272.448182,12.4319242 271.871023,13.3388886 270.881607,13.3388886 C269.727289,13.3388886 265.769626,13.3388886 265.769626,13.3388886 Z" id="Combined-Shape"></path>
                </g>
            </g>
        </g>
    </g>
</svg>