<?xml version="1.0" standalone="no"?><!DOCTYPE svg PUBLIC "-//W3C//DTD SVG 1.1//EN" "http://www.w3.org/Graphics/SVG/1.1/DTD/svg11.dtd"><svg t="1527141648682" class="icon" style="" viewBox="0 0 1024 1024" version="1.1" xmlns="http://www.w3.org/2000/svg" p-id="3712" xmlns:xlink="http://www.w3.org/1999/xlink" width="200" height="200"><defs><style type="text/css"></style></defs><path d="M512 512m-512 0a512 512 0 1 0 1024 0 512 512 0 1 0-1024 0Z" fill="#CCCCCC" p-id="3713"></path><path d="M512 185.457778c106.951111 0 193.422222 86.471111 193.422222 193.422222v68.266667c0 106.951111-86.471111 193.422222-193.422222 193.422222s-193.422222-86.471111-193.422222-193.422222v-68.266667c0-106.951111 86.471111-193.422222 193.422222-193.422222zM592.782222 708.835556H431.217778c-87.608889 0-166.115556 42.097778-210.488889 106.951111l-1.137778 1.137777c-5.688889 7.964444-4.551111 19.342222 2.275556 26.168889 63.715556 62.577778 160.426667 93.297778 290.133333 93.297778s226.417778-30.72 290.133333-93.297778c6.826667-6.826667 7.964444-18.204444 2.275556-26.168889 0-1.137778-1.137778-1.137778-1.137778-2.275555-45.511111-63.715556-122.88-105.813333-210.488889-105.813333z" fill="#ffffff" p-id="3714"></path></svg>