<?xml version="1.0" encoding="UTF-8"?>
<svg width="13px" height="14px" viewBox="0 0 13 14" version="1.1" xmlns="http://www.w3.org/2000/svg" xmlns:xlink="http://www.w3.org/1999/xlink">
    <!-- Generator: Sketch 50 (54983) - http://www.bohemiancoding.com/sketch -->
    <title>Shape</title>
    <desc>Created with Sketch.</desc>
    <defs></defs>
    <g id="Page-1" stroke="none" stroke-width="1" fill="none" fill-rule="evenodd">
        <g id="Notebook-Copy-5" transform="translate(-527.000000, -112.000000)" fill="#38507F" fill-rule="nonzero">
            <g id="Group-14" transform="translate(394.000000, 109.000000)">
                <g id="Group-20">
                    <path d="M142.173303,7.04446 L145.334318,7.04446 L145.334318,14.1238628 C145.334318,14.5153207 145.016979,14.83266 144.625521,14.83266 L137.344803,14.83266 C136.953345,14.83266 136.636005,14.5153207 136.636005,14.1238628 L136.636005,3.70879719 C136.636005,3.31733931 136.953345,3 137.344803,3 L141.322746,3 L141.322746,6.19390338 C141.322746,6.66365283 141.703553,7.04446 142.173303,7.04446 Z M145.334318,6.23554 L142.125116,3 L142.125116,6.23554 L145.334318,6.23554 Z M135.851549,5.16734 L134.043115,5.16734 C133.651658,5.16734 133.334318,5.48467931 133.334318,5.87613719 L133.334318,16.2912028 C133.334318,16.6826607 133.651658,17 134.043115,17 L141.323695,17 C141.715153,17 142.032492,16.6826607 142.032492,16.2912028 L142.032492,15.53882 L135.851549,15.53882 L135.851549,5.16734 Z" id="Shape"></path>
                </g>
            </g>
        </g>
    </g>
</svg>