<?xml version="1.0" encoding="UTF-8"?>
<svg width="15px" height="14px" viewBox="0 0 15 14" version="1.1" xmlns="http://www.w3.org/2000/svg" xmlns:xlink="http://www.w3.org/1999/xlink">
    <!-- Generator: Sketch 50 (54983) - http://www.bohemiancoding.com/sketch -->
    <title>Shape</title>
    <desc>Created with Sketch.</desc>
    <defs></defs>
    <g id="Page-1" stroke="none" stroke-width="1" fill="none" fill-rule="evenodd">
        <g id="Notebook-Copy-5" transform="translate(-483.000000, -112.000000)" fill="#38507F" fill-rule="nonzero">
            <g id="Group-14" transform="translate(394.000000, 109.000000)">
                <g id="Group-20">
                    <path d="M94.5935228,6.92556818 C94.753608,6.57755682 94.8440909,6.19474432 94.8440909,5.78409091 C94.8440909,4.24588068 93.5982103,3 92.06,3 C90.5217898,3 89.2759091,4.24588068 89.2759091,5.78409091 C89.2759091,7.32230114 90.5217898,8.56818182 92.06,8.56818182 C92.4706534,8.56818182 92.8534659,8.47769886 93.2014773,8.31761364 L94.8440909,9.96022727 L93.2014773,11.6028409 C92.8534659,11.4427557 92.4706534,11.3522727 92.06,11.3522727 C90.5217898,11.3522727 89.2759091,12.5981534 89.2759091,14.1363636 C89.2759091,15.6745739 90.5217898,16.9204545 92.06,16.9204545 C93.5982103,16.9204545 94.8440909,15.6745739 94.8440909,14.1363636 C94.8440909,13.7257102 94.753608,13.3428977 94.5935228,12.9948864 L96.2361364,11.3522727 L101.108295,16.2244318 L103.196364,16.2244318 L103.196364,15.5284091 L94.5935228,6.92556818 Z M92.06,7.17613636 C91.294375,7.17613636 90.6679546,6.55667614 90.6679546,5.78409091 C90.6679546,5.01150568 91.294375,4.39204545 92.06,4.39204545 C92.825625,4.39204545 93.4520455,5.01150568 93.4520455,5.78409091 C93.4520455,6.55667614 92.825625,7.17613636 92.06,7.17613636 Z M92.06,15.5284091 C91.294375,15.5284091 90.6679546,14.9089489 90.6679546,14.1363636 C90.6679546,13.3637784 91.294375,12.7443182 92.06,12.7443182 C92.825625,12.7443182 93.4520455,13.3637784 93.4520455,14.1363636 C93.4520455,14.9089489 92.825625,15.5284091 92.06,15.5284091 Z M96.2361364,10.3082386 C96.04125,10.3082386 95.888125,10.1551136 95.888125,9.96022727 C95.888125,9.76534091 96.04125,9.61221591 96.2361364,9.61221591 C96.4310228,9.61221591 96.5841478,9.76534091 96.5841478,9.96022727 C96.5841478,10.1551136 96.4310228,10.3082386 96.2361364,10.3082386 Z M101.108295,3.69602273 L96.9321591,7.87215909 L98.3242046,9.26420455 L103.196364,4.39204545 L103.196364,3.69602273 L101.108295,3.69602273 Z" id="Shape"></path>
                </g>
            </g>
        </g>
    </g>
</svg>