<?xml version="1.0" encoding="UTF-8"?>
<svg width="14px" height="14px" viewBox="0 0 14 14" version="1.1" xmlns="http://www.w3.org/2000/svg" xmlns:xlink="http://www.w3.org/1999/xlink">
    <!-- Generator: Sketch 50 (54983) - http://www.bohemiancoding.com/sketch -->
    <title>时间-3</title>
    <desc>Created with Sketch.</desc>
    <defs></defs>
    <g id="Page-1" stroke="none" stroke-width="1" fill="none" fill-rule="evenodd">
        <g id="Notebook-Copy-5" transform="translate(-1835.000000, -67.000000)" fill="#38507F">
            <g id="Group-13" transform="translate(1562.000000, 40.000000)">
                <g id="Group-3" transform="translate(21.000000, 25.000000)">
                    <path d="M258.992581,2.03975182 C255.130359,2.03975182 252,5.17011095 252,9.03010511 C252,12.8900788 255.130359,16.020438 258.992581,16.020438 C262.854864,16.020438 265.985223,12.8900788 265.985223,9.03010511 C265.982914,5.17011095 262.852555,2.03975182 258.992581,2.03975182 Z M261.815247,10.2538277 L258.496082,10.2538277 C258.470453,10.2538277 258.456473,10.2328175 258.430844,10.2305898 C258.421504,10.2305898 258.416803,10.2422394 258.405215,10.2422394 C258.323626,10.2399299 258.262966,10.1769401 258.19078,10.1420526 C258.13012,10.1093927 258.060263,10.102362 258.013623,10.0580526 C257.976345,10.0208555 257.974035,9.96258686 257.946015,9.91586569 C257.896984,9.83196788 257.827127,9.75738978 257.827127,9.65712117 C257.827127,9.64547153 257.841107,9.63852263 257.841107,9.62687299 C257.841107,9.61289343 257.827127,9.60355328 257.827127,9.58959416 L257.827127,5.04668613 C257.827127,4.68775474 258.088201,4.39643212 258.407545,4.39643212 C258.729197,4.39643212 258.987942,4.68775474 258.987942,5.04668613 L258.987942,9.06282628 L261.815247,9.06282628 C262.185848,9.06282628 262.486593,9.32851971 262.486593,9.65720292 C262.484263,9.98588613 262.185848,10.2538891 261.815247,10.2538891 L261.815247,10.2538277 Z" id="时间-3"></path>
                </g>
            </g>
        </g>
    </g>
</svg>