<?xml version="1.0" encoding="UTF-8"?>
<svg width="16px" height="14px" viewBox="0 0 16 14" version="1.1" xmlns="http://www.w3.org/2000/svg" xmlns:xlink="http://www.w3.org/1999/xlink">
    <!-- Generator: Sketch 50 (54983) - http://www.bohemiancoding.com/sketch -->
    <title>Shape</title>
    <desc>Created with Sketch.</desc>
    <defs></defs>
    <g id="Page-1" stroke="none" stroke-width="1" fill="none" fill-rule="evenodd">
        <g id="Notebook-Copy-5" transform="translate(-1789.000000, -66.000000)" fill="#38507F">
            <g id="Group-13" transform="translate(1562.000000, 40.000000)">
                <g id="Group-3" transform="translate(21.000000, 25.000000)">
                    <path d="M216.508436,5.64418948 L221.323124,5.9828283 C221.521668,5.9828283 221.670576,6.12795922 221.769848,6.32146712 C221.819484,6.51497501 221.769848,6.66010593 221.62094,6.80523686 L217.947879,9.8529862 L219.089506,14.4004217 C219.139142,14.5939296 219.03987,14.7874375 218.890962,14.8841915 C218.742054,15.0293224 218.543511,15.0293224 218.344967,14.9325685 L214.274818,12.4653428 L210.155033,14.9325685 C209.956489,15.0293224 209.757946,15.0293224 209.609038,14.8841915 C209.46013,14.7874375 209.410494,14.5939296 209.46013,14.4004217 L210.552121,9.8529862 L206.87906,6.80523686 C206.730152,6.66010593 206.680516,6.51497501 206.730152,6.32146712 C206.829424,6.12795922 206.978332,5.9828283 207.176876,5.9828283 L211.991564,5.64418948 L213.828094,1.29026184 C213.87773,1.09675395 214.076274,1 214.274818,1 C214.473362,1 214.62227,1.09675395 214.671906,1.29026184 L216.508436,5.64418948 Z" id="Shape"></path>
                </g>
            </g>
        </g>
    </g>
</svg>