<?xml version="1.0" encoding="UTF-8"?>
<svg width="15px" height="15px" viewBox="0 0 15 15" version="1.1" xmlns="http://www.w3.org/2000/svg" xmlns:xlink="http://www.w3.org/1999/xlink">
    <!-- Generator: Sketch 50 (54983) - http://www.bohemiancoding.com/sketch -->
    <title>Shape</title>
    <desc>Created with Sketch.</desc>
    <defs></defs>
    <g id="Page-1" stroke="none" stroke-width="1" fill="none" fill-rule="evenodd">
        <g id="Notebook-Copy-5" transform="translate(-327.000000, -63.000000)" fill="#38507F">
            <g id="Group-7" transform="translate(0.000000, 40.000000)">
                <g id="Group-13-Copy" transform="translate(48.000000, 0.000000)">
                    <g id="Group-9" transform="translate(19.000000, 22.000000)">
                        <path d="M267.5,1 C271.629464,1 275,4.34821429 275,8.5 C275,12.6294643 271.629464,16 267.5,16 C263.348214,16 260,12.6294643 260,8.5 C260,4.34821429 263.348214,1 267.5,1 Z M268.683036,7.27232143 L269.799107,6.13392857 C269.910714,6.04464286 269.977679,5.88839286 269.977679,5.75446429 C269.977679,5.59821429 269.910714,5.46428571 269.799107,5.375 L268.683036,4.23660714 C268.59375,4.14732143 268.459821,4.08035714 268.303571,4.08035714 C268.013393,4.08035714 267.767857,4.32589286 267.767857,4.61607143 L267.767857,5.21875 L265.558036,5.21875 C264.084821,5.21875 262.879464,6.42410714 262.879464,7.89732143 L262.879464,9.10267857 C262.879464,9.39285714 263.125,9.63839286 263.415179,9.63839286 C263.705357,9.63839286 263.950893,9.39285714 263.950893,9.10267857 L263.950893,7.89732143 C263.950893,7.00446429 264.665179,6.29017857 265.558036,6.29017857 L267.767857,6.29017857 L267.767857,6.89285714 C267.767857,7.02678571 267.8125,7.16071429 267.924107,7.27232143 C268.125,7.47321429 268.459821,7.47321429 268.683036,7.27232143 Z M271.049107,7.89732143 C271.049107,7.60714286 271.272321,7.36160714 271.584821,7.36160714 C271.875,7.36160714 272.120536,7.60714286 272.120536,7.89732143 L272.120536,9.10267857 C272.120536,10.5758929 270.915179,11.78125 269.441964,11.78125 L267.232143,11.78125 L267.232143,12.3839286 C267.232143,12.6741071 266.986607,12.9196429 266.696429,12.9196429 C266.540179,12.9196429 266.40625,12.8526786 266.316964,12.7410714 L265.178571,11.625 C265.089286,11.5133929 265.022321,11.3794643 265.022321,11.2455357 C265.022321,11.0892857 265.089286,10.9553571 265.178571,10.84375 L266.316964,9.72767857 C266.517857,9.52678571 266.852679,9.52678571 267.075893,9.72767857 C267.165179,9.83928571 267.232143,9.97321429 267.232143,10.1071429 L267.232143,10.7098214 L269.441964,10.7098214 C270.3125,10.7098214 271.049107,9.97321429 271.049107,9.10267857 L271.049107,7.89732143 Z" id="Shape"></path>
                    </g>
                </g>
            </g>
        </g>
    </g>
</svg>